<svg width="16" height="16" viewBox="0 0 16 16" fill="none" xmlns="http://www.w3.org/2000/svg">
<path fill-rule="evenodd" clip-rule="evenodd" d="M11.7294 2.99999C11.8957 2.99891 12.0596 3.0396 12.2061 3.11833C12.3524 3.19691 12.4766 3.31086 12.5674 3.44976L15.416 7.72264C15.528 7.89059 15.528 8.10939 15.416 8.27734L12.5674 12.5502C12.4766 12.6891 12.3524 12.8031 12.2061 12.8816C12.0596 12.9604 11.8957 13.0011 11.7293 13H2.5C2.23478 13 1.98043 12.8946 1.79289 12.7071C1.60536 12.5196 1.5 12.2652 1.5 12V3.99999C1.5 3.73477 1.60536 3.48042 1.79289 3.29288C1.98043 3.10535 2.23478 2.99999 2.5 2.99999H11.7294ZM12.15 12.275L11.734 11.9976L14.3991 7.99999L11.7324 4L11.7312 4.00001L2.5 3.99999L2.5 12H11.7358C11.7351 12 11.7343 12.0001 11.7336 12.0004C11.7333 12.0005 11.7331 12.0006 11.7328 12.0008C11.7322 12.0011 11.7317 12.0015 11.7312 12.002C11.731 12.0022 11.7308 12.0025 11.7305 12.0029L12.15 12.275Z" fill="#7C7C8A"/>
</svg>
